<?xml version="1.0" encoding="utf-8"?>
<!-- Generator: Adobe Illustrator 16.0.0, SVG Export Plug-In . SVG Version: 6.00 Build 0)  -->
<!DOCTYPE svg PUBLIC "-//W3C//DTD SVG 1.1//EN" "http://www.w3.org/Graphics/SVG/1.1/DTD/svg11.dtd">
<svg version="1.1" id="Calque_1" xmlns="http://www.w3.org/2000/svg" xmlns:xlink="http://www.w3.org/1999/xlink" x="0px" y="0px"
	 width="35.833px" height="38.392px" viewBox="0 0 35.833 38.392" enable-background="new 0 0 35.833 38.392" xml:space="preserve">
<g>
	<g>
		<g>
			<circle fill="#3C3C3B" cx="11.786" cy="19.196" r="1.112"/>
			<path fill="#FFFFFF" d="M11.786,18.173c0.564,0,1.021,0.458,1.021,1.021c0,0.566-0.457,1.024-1.021,1.024
				c-0.562,0-1.021-0.458-1.021-1.024C10.766,18.631,11.224,18.173,11.786,18.173 M11.786,17.993c-0.662,0-1.201,0.539-1.201,1.201
				c0,0.664,0.539,1.204,1.201,1.204c0.663,0,1.202-0.54,1.202-1.204C12.988,18.532,12.449,17.993,11.786,17.993L11.786,17.993z"/>
		</g>
	</g>
	<g>
		<g>
			<circle fill="#3C3C3B" cx="24.045" cy="31.547" r="1.111"/>
			<path fill="#FFFFFF" d="M24.045,30.526c0.564,0,1.022,0.458,1.022,1.021c0,0.563-0.458,1.021-1.022,1.021
				c-0.563,0-1.021-0.458-1.021-1.021C23.023,30.984,23.481,30.526,24.045,30.526 M24.045,30.346c-0.663,0-1.202,0.539-1.202,1.201
				c0,0.663,0.539,1.202,1.202,1.202c0.663,0,1.203-0.539,1.203-1.202C25.248,30.885,24.708,30.346,24.045,30.346L24.045,30.346z"/>
		</g>
		<g>
			<circle fill="#3C3C3B" cx="19.959" cy="27.43" r="1.112"/>
			<path fill="#FFFFFF" d="M19.959,26.409c0.564,0,1.021,0.458,1.021,1.022c0,0.563-0.457,1.021-1.021,1.021
				s-1.021-0.458-1.021-1.021C18.938,26.867,19.395,26.409,19.959,26.409 M19.959,26.229c-0.662,0-1.201,0.54-1.201,1.203
				c0,0.662,0.539,1.201,1.201,1.201c0.663,0,1.202-0.539,1.202-1.201C21.161,26.768,20.622,26.229,19.959,26.229L19.959,26.229z"/>
		</g>
		<g>
			<circle fill="#3C3C3B" cx="15.873" cy="23.313" r="1.111"/>
			<path fill="#FFFFFF" d="M15.873,22.292c0.563,0,1.021,0.458,1.021,1.021c0,0.564-0.458,1.021-1.021,1.021
				c-0.564,0-1.021-0.458-1.021-1.021C14.852,22.75,15.309,22.292,15.873,22.292 M15.873,22.112c-0.663,0-1.202,0.539-1.202,1.201
				c0,0.663,0.539,1.202,1.202,1.202s1.202-0.539,1.202-1.202C17.075,22.651,16.536,22.112,15.873,22.112L15.873,22.112z"/>
		</g>
		<g>
			<circle fill="#3C3C3B" cx="11.787" cy="19.196" r="1.112"/>
			<path fill="#FFFFFF" d="M11.787,18.174c0.562,0,1.021,0.458,1.021,1.024c0,0.562-0.458,1.021-1.021,1.021
				c-0.564,0-1.021-0.458-1.021-1.021C10.766,18.632,11.223,18.174,11.787,18.174 M11.787,17.994c-0.663,0-1.202,0.54-1.202,1.204
				c0,0.662,0.539,1.201,1.202,1.201c0.662,0,1.201-0.539,1.201-1.201C12.988,18.534,12.449,17.994,11.787,17.994L11.787,17.994z"/>
		</g>
		<g>
			<path fill="#3C3C3B" d="M15.873,16.19c-0.297,0-0.577-0.116-0.786-0.326c-0.21-0.209-0.325-0.488-0.324-0.784
				c0-0.613,0.498-1.111,1.11-1.111c0.613,0,1.111,0.499,1.111,1.111C16.984,15.692,16.486,16.19,15.873,16.19z"/>
			<path fill="#FFFFFF" d="M15.873,14.058c0.563,0,1.021,0.458,1.021,1.021c0,0.562-0.458,1.021-1.021,1.021
				c-0.564,0-1.021-0.458-1.021-1.021C14.853,14.516,15.31,14.058,15.873,14.058 M15.873,13.878c-0.662,0-1.201,0.539-1.201,1.202
				c0,0.32,0.124,0.621,0.351,0.848c0.227,0.227,0.529,0.353,0.85,0.353c0.663,0,1.202-0.539,1.202-1.201
				C17.075,14.417,16.536,13.878,15.873,13.878L15.873,13.878z"/>
		</g>
		<g>
			<circle fill="#3C3C3B" cx="19.959" cy="10.962" r="1.112"/>
			<path fill="#FFFFFF" d="M19.959,9.94c0.564,0,1.021,0.458,1.021,1.022c0,0.563-0.457,1.021-1.021,1.021
				c-0.563,0-1.021-0.458-1.021-1.021C18.938,10.398,19.396,9.94,19.959,9.94 M19.959,9.76c-0.662,0-1.201,0.54-1.201,1.203
				c0,0.663,0.539,1.202,1.201,1.202c0.663,0,1.202-0.539,1.202-1.202C21.161,10.3,20.622,9.76,19.959,9.76L19.959,9.76z"/>
		</g>
		<g>
			<circle fill="#3C3C3B" cx="24.046" cy="6.845" r="1.111"/>
			<path fill="#FFFFFF" d="M24.046,5.824c0.563,0,1.021,0.458,1.021,1.021c0,0.563-0.458,1.021-1.021,1.021
				c-0.564,0-1.021-0.458-1.021-1.021C23.024,6.282,23.481,5.824,24.046,5.824 M24.046,5.644c-0.663,0-1.202,0.539-1.202,1.201
				s0.539,1.201,1.202,1.201s1.202-0.539,1.202-1.201S24.708,5.644,24.046,5.644L24.046,5.644z"/>
		</g>
	</g>
</g>
</svg>
