<?xml version="1.0" encoding="utf-8"?>
<!-- Generator: Adobe Illustrator 16.0.0, SVG Export Plug-In . SVG Version: 6.00 Build 0)  -->
<!DOCTYPE svg PUBLIC "-//W3C//DTD SVG 1.1//EN" "http://www.w3.org/Graphics/SVG/1.1/DTD/svg11.dtd">
<svg version="1.1" id="Calque_1" xmlns="http://www.w3.org/2000/svg" xmlns:xlink="http://www.w3.org/1999/xlink" x="0px" y="0px"
	 width="35.833px" height="38.392px" viewBox="0 0 35.833 38.392" enable-background="new 0 0 35.833 38.392" xml:space="preserve">
<g>
	<g>
		<g>
			<circle fill="#3C3C3B" cx="5.658" cy="6.844" r="1.111"/>
			<path fill="#FFFFFF" d="M5.658,5.823c0.563,0,1.021,0.458,1.021,1.021c0,0.563-0.458,1.021-1.021,1.021
				c-0.564,0-1.022-0.458-1.022-1.021C4.636,6.281,5.094,5.823,5.658,5.823 M5.658,5.643c-0.663,0-1.203,0.539-1.203,1.202
				c0,0.662,0.54,1.201,1.203,1.201c0.663,0,1.202-0.539,1.202-1.201C6.86,6.182,6.321,5.643,5.658,5.643L5.658,5.643z"/>
		</g>
		<g>
			<circle fill="#3C3C3B" cx="9.744" cy="10.961" r="1.112"/>
			<path fill="#FFFFFF" d="M9.744,9.939c0.564,0,1.021,0.458,1.021,1.021c0,0.564-0.456,1.022-1.021,1.022s-1.021-0.458-1.021-1.022
				C8.723,10.397,9.18,9.939,9.744,9.939 M9.744,9.759c-0.663,0-1.202,0.539-1.202,1.201c0,0.663,0.539,1.203,1.202,1.203
				c0.662,0,1.201-0.54,1.201-1.203C10.945,10.298,10.406,9.759,9.744,9.759L9.744,9.759z"/>
		</g>
		<g>
			<circle fill="#3C3C3B" cx="13.83" cy="15.078" r="1.111"/>
			<path fill="#FFFFFF" d="M13.83,14.057c0.564,0,1.021,0.458,1.021,1.021c0,0.563-0.457,1.021-1.021,1.021
				c-0.563,0-1.021-0.458-1.021-1.021C12.809,14.515,13.267,14.057,13.83,14.057 M13.83,13.877c-0.663,0-1.202,0.539-1.202,1.202
				c0,0.662,0.539,1.201,1.202,1.201s1.202-0.539,1.202-1.201C15.032,14.416,14.493,13.877,13.83,13.877L13.83,13.877z"/>
		</g>
		<g>
			<circle fill="#3C3C3B" cx="17.916" cy="19.196" r="1.112"/>
			<path fill="#FFFFFF" d="M17.916,18.173c0.564,0,1.021,0.458,1.021,1.021c0,0.566-0.457,1.024-1.021,1.024
				c-0.562,0-1.021-0.458-1.021-1.024C16.896,18.631,17.354,18.173,17.916,18.173 M17.916,17.993c-0.662,0-1.201,0.539-1.201,1.201
				c0,0.664,0.539,1.204,1.201,1.204c0.663,0,1.202-0.54,1.202-1.204C19.118,18.532,18.579,17.993,17.916,17.993L17.916,17.993z"/>
		</g>
		<g>
			<circle fill="#3C3C3B" cx="13.83" cy="23.312" r="1.111"/>
			<path fill="#FFFFFF" d="M13.83,22.292c0.564,0,1.021,0.458,1.021,1.021c0,0.563-0.457,1.021-1.021,1.021
				c-0.563,0-1.021-0.458-1.021-1.021C12.809,22.75,13.267,22.292,13.83,22.292 M13.83,22.111c-0.663,0-1.202,0.539-1.202,1.201
				c0,0.663,0.539,1.202,1.202,1.202s1.202-0.539,1.202-1.202C15.032,22.65,14.493,22.111,13.83,22.111L13.83,22.111z"/>
		</g>
		<g>
			<circle fill="#3C3C3B" cx="9.744" cy="27.429" r="1.112"/>
			<path fill="#FFFFFF" d="M9.744,26.407c0.564,0,1.021,0.458,1.021,1.021c0,0.564-0.456,1.022-1.021,1.022
				s-1.021-0.458-1.021-1.022C8.723,26.865,9.18,26.407,9.744,26.407 M9.744,26.227c-0.663,0-1.202,0.539-1.202,1.202
				c0,0.663,0.539,1.203,1.202,1.203c0.662,0,1.201-0.54,1.201-1.203C10.945,26.766,10.406,26.227,9.744,26.227L9.744,26.227z"/>
		</g>
		<g>
			<circle fill="#3C3C3B" cx="5.658" cy="31.546" r="1.111"/>
			<path fill="#FFFFFF" d="M5.658,30.525c0.563,0,1.021,0.458,1.021,1.021c0,0.563-0.458,1.021-1.021,1.021
				c-0.564,0-1.022-0.458-1.022-1.021C4.636,30.983,5.094,30.525,5.658,30.525 M5.658,30.345c-0.663,0-1.203,0.539-1.203,1.201
				s0.54,1.201,1.203,1.201c0.663,0,1.202-0.539,1.202-1.201S6.321,30.345,5.658,30.345L5.658,30.345z"/>
		</g>
	</g>
	<g>
		<g>
			<circle fill="#3C3C3B" cx="30.175" cy="31.547" r="1.111"/>
			<path fill="#FFFFFF" d="M30.175,30.526c0.564,0,1.022,0.458,1.022,1.021c0,0.563-0.458,1.021-1.022,1.021
				c-0.563,0-1.021-0.458-1.021-1.021C29.153,30.984,29.611,30.526,30.175,30.526 M30.175,30.346c-0.663,0-1.202,0.539-1.202,1.201
				c0,0.663,0.539,1.202,1.202,1.202c0.663,0,1.203-0.539,1.203-1.202C31.377,30.885,30.838,30.346,30.175,30.346L30.175,30.346z"/>
		</g>
		<g>
			<circle fill="#3C3C3B" cx="26.089" cy="27.43" r="1.112"/>
			<path fill="#FFFFFF" d="M26.089,26.409c0.564,0,1.021,0.458,1.021,1.022c0,0.563-0.457,1.021-1.021,1.021
				s-1.021-0.458-1.021-1.021C25.068,26.867,25.524,26.409,26.089,26.409 M26.089,26.229c-0.662,0-1.201,0.54-1.201,1.203
				c0,0.662,0.539,1.201,1.201,1.201c0.663,0,1.202-0.539,1.202-1.201C27.291,26.768,26.751,26.229,26.089,26.229L26.089,26.229z"/>
		</g>
		<g>
			<circle fill="#3C3C3B" cx="22.003" cy="23.313" r="1.111"/>
			<path fill="#FFFFFF" d="M22.003,22.292c0.563,0,1.021,0.458,1.021,1.021c0,0.564-0.458,1.021-1.021,1.021
				c-0.564,0-1.021-0.458-1.021-1.021C20.981,22.75,21.438,22.292,22.003,22.292 M22.003,22.112c-0.663,0-1.202,0.539-1.202,1.201
				c0,0.663,0.539,1.202,1.202,1.202s1.202-0.539,1.202-1.202C23.205,22.651,22.666,22.112,22.003,22.112L22.003,22.112z"/>
		</g>
		<g>
			<circle fill="#3C3C3B" cx="17.917" cy="19.196" r="1.112"/>
			<path fill="#FFFFFF" d="M17.917,18.174c0.562,0,1.021,0.458,1.021,1.024c0,0.562-0.458,1.021-1.021,1.021
				c-0.564,0-1.021-0.458-1.021-1.021C16.896,18.632,17.353,18.174,17.917,18.174 M17.917,17.994c-0.663,0-1.202,0.54-1.202,1.204
				c0,0.662,0.539,1.201,1.202,1.201c0.662,0,1.201-0.539,1.201-1.201C19.118,18.534,18.579,17.994,17.917,17.994L17.917,17.994z"/>
		</g>
		<g>
			<path fill="#3C3C3B" d="M22.003,16.19c-0.297,0-0.577-0.116-0.786-0.326c-0.21-0.209-0.325-0.488-0.324-0.784
				c0-0.613,0.498-1.111,1.11-1.111c0.613,0,1.111,0.499,1.111,1.111C23.114,15.692,22.616,16.19,22.003,16.19z"/>
			<path fill="#FFFFFF" d="M22.003,14.058c0.563,0,1.021,0.458,1.021,1.021c0,0.562-0.458,1.021-1.021,1.021
				c-0.564,0-1.021-0.458-1.021-1.021C20.982,14.516,21.439,14.058,22.003,14.058 M22.003,13.878c-0.662,0-1.201,0.539-1.201,1.202
				c0,0.32,0.124,0.621,0.351,0.848c0.227,0.227,0.529,0.353,0.85,0.353c0.663,0,1.202-0.539,1.202-1.201
				C23.205,14.417,22.666,13.878,22.003,13.878L22.003,13.878z"/>
		</g>
		<g>
			<circle fill="#3C3C3B" cx="26.089" cy="10.962" r="1.112"/>
			<path fill="#FFFFFF" d="M26.089,9.94c0.564,0,1.021,0.458,1.021,1.022c0,0.563-0.457,1.021-1.021,1.021
				c-0.563,0-1.021-0.458-1.021-1.021C25.068,10.398,25.525,9.94,26.089,9.94 M26.089,9.76c-0.662,0-1.201,0.54-1.201,1.203
				c0,0.663,0.539,1.202,1.201,1.202c0.663,0,1.202-0.539,1.202-1.202C27.291,10.3,26.751,9.76,26.089,9.76L26.089,9.76z"/>
		</g>
		<g>
			<circle fill="#3C3C3B" cx="30.176" cy="6.845" r="1.111"/>
			<path fill="#FFFFFF" d="M30.176,5.824c0.563,0,1.021,0.458,1.021,1.021c0,0.563-0.458,1.021-1.021,1.021
				c-0.564,0-1.021-0.458-1.021-1.021C29.154,6.282,29.611,5.824,30.176,5.824 M30.176,5.644c-0.663,0-1.202,0.539-1.202,1.201
				s0.539,1.201,1.202,1.201s1.202-0.539,1.202-1.201S30.838,5.644,30.176,5.644L30.176,5.644z"/>
		</g>
	</g>
</g>
</svg>
