<?xml version="1.0" encoding="utf-8"?>
<!-- Generator: Adobe Illustrator 16.0.0, SVG Export Plug-In . SVG Version: 6.00 Build 0)  -->
<!DOCTYPE svg PUBLIC "-//W3C//DTD SVG 1.1//EN" "http://www.w3.org/Graphics/SVG/1.1/DTD/svg11.dtd">
<svg version="1.1" id="Calque_1" xmlns="http://www.w3.org/2000/svg" xmlns:xlink="http://www.w3.org/1999/xlink" x="0px" y="0px"
	 width="33.587px" height="33.588px" viewBox="0 0 33.587 33.588" enable-background="new 0 0 33.587 33.588" xml:space="preserve">
<g>
	<polygon fill="#F46130" points="13.028,2.351 14.698,0 16.895,1.868 19.116,0.03 20.754,2.403 23.375,1.202 24.344,3.918 
		27.187,3.437 27.419,6.311 30.29,6.582 29.77,9.418 32.473,10.423 31.237,13.028 33.587,14.698 31.72,16.895 33.558,19.116 
		31.185,20.754 32.385,23.375 29.669,24.344 30.151,27.187 27.277,27.419 27.006,30.29 24.17,29.771 23.165,32.474 20.56,31.237 
		18.89,33.588 16.693,31.72 14.472,33.558 12.834,31.185 10.212,32.386 9.244,29.67 6.401,30.151 6.169,27.277 3.298,27.006 
		3.818,24.17 1.115,23.165 2.351,20.56 0,18.89 1.868,16.693 0.03,14.472 2.403,12.834 1.202,10.212 3.918,9.244 3.437,6.401 
		6.311,6.169 6.582,3.298 9.418,3.818 10.422,1.115 	"/>
	<path fill="#FFFFFF" d="M15.366,25.993l-0.147-0.564l2.61-0.681l-3.6-13.803c-0.727,1.134-1.469,2.01-2.464,2.82l-0.379-0.452
		c0.919-0.896,1.267-1.274,2.026-2.286c0.845-1.086,1.081-1.489,1.654-2.609l0.885-0.23l4.163,15.964l2.241-0.584l0.147,0.564
		L15.366,25.993z"/>
</g>
</svg>
